<?xml version="1.0" encoding="UTF-8"?>
<svg xmlns="http://www.w3.org/2000/svg" xmlns:xlink="http://www.w3.org/1999/xlink" width="100%" height="100%" viewBox="0 0 40 30" version="1.1">
<g id="surface1">
<rect x="0" y="0" width="40" height="30" style="fill:rgb(13.333333%,61.960784%,27.058824%);fill-opacity:1;stroke:none;"/>
<path style=" stroke:none;fill-rule:evenodd;fill:rgb(97.254902%,89.803922%,3.529412%);fill-opacity:1;" d="M 20.085938 27.25 L 38.929688 15.019531 L 19.976562 2.75 L 1.070312 15.042969 Z M 20.085938 27.25 "/>
<path style=" stroke:none;fill-rule:evenodd;fill:rgb(16.862745%,28.627451%,63.921569%);fill-opacity:1;" d="M 28.300781 15 C 28.300781 19.394531 24.730469 22.957031 20.324219 22.957031 C 15.929688 22.949219 12.371094 19.378906 12.375 14.984375 C 12.378906 10.585938 15.949219 7.027344 20.347656 7.03125 C 24.742188 7.035156 28.304688 10.601562 28.300781 15 Z M 28.300781 15 "/>
<path style=" stroke:none;fill-rule:evenodd;fill:rgb(100%,100%,93.72549%);fill-opacity:1;" d="M 17.707031 19.769531 L 17.457031 19.625 L 17.207031 19.75 L 17.261719 19.46875 L 17.0625 19.257812 L 17.34375 19.226562 L 17.480469 18.976562 L 17.601562 19.238281 L 17.875 19.289062 L 17.667969 19.476562 M 23.042969 21.117188 L 22.800781 20.976562 L 22.550781 21.101562 L 22.601562 20.820312 L 22.40625 20.613281 L 22.6875 20.582031 L 22.820312 20.324219 L 22.945312 20.585938 L 23.21875 20.636719 L 23.007812 20.832031 M 20.742188 18.957031 L 20.53125 18.832031 L 20.3125 18.945312 L 20.363281 18.699219 L 20.1875 18.519531 L 20.4375 18.492188 L 20.550781 18.269531 L 20.648438 18.5 L 20.894531 18.542969 L 20.707031 18.710938 M 26.144531 18.179688 L 25.929688 18.054688 L 25.710938 18.167969 L 25.761719 17.925781 L 25.59375 17.75 L 25.835938 17.726562 L 25.949219 17.507812 L 26.050781 17.730469 L 26.289062 17.773438 L 26.105469 17.9375 M 20.648438 16.5625 L 20.398438 16.425781 L 20.148438 16.550781 L 20.199219 16.261719 L 20.007812 16.054688 L 20.289062 16.023438 L 20.417969 15.769531 L 20.542969 16.03125 L 20.820312 16.082031 L 20.605469 16.28125 M 14.070312 14.09375 L 13.820312 13.957031 L 13.570312 14.082031 L 13.632812 13.792969 L 13.425781 13.585938 L 13.710938 13.554688 L 13.835938 13.300781 L 13.960938 13.5625 L 14.238281 13.613281 L 14.03125 13.804688 M 14.863281 17.382812 L 14.613281 17.238281 L 14.363281 17.363281 L 14.417969 17.082031 L 14.21875 16.875 L 14.5 16.835938 L 14.632812 16.585938 L 14.757812 16.851562 L 15.03125 16.898438 L 14.824219 17.09375 M 23.074219 12.886719 L 22.851562 12.761719 L 22.625 12.875 L 22.675781 12.625 L 22.5 12.4375 L 22.75 12.40625 L 22.867188 12.179688 L 22.976562 12.417969 L 23.226562 12.460938 L 23.039062 12.632812 M 22.617188 15.023438 L 22.449219 14.925781 L 22.269531 15.011719 L 22.304688 14.8125 L 22.167969 14.667969 L 22.367188 14.644531 L 22.460938 14.46875 L 22.542969 14.65625 L 22.730469 14.6875 L 22.59375 14.824219 M 13.707031 17.976562 L 13.539062 17.882812 L 13.367188 17.960938 L 13.40625 17.773438 L 13.273438 17.636719 L 13.460938 17.613281 L 13.550781 17.445312 L 13.632812 17.617188 L 13.820312 17.65625 L 13.675781 17.78125 M 26.1875 18.738281 L 26.050781 18.667969 L 25.914062 18.730469 L 25.945312 18.585938 L 25.835938 18.488281 L 25.988281 18.46875 L 26.0625 18.34375 L 26.125 18.46875 L 26.28125 18.5 L 26.164062 18.59375 "/>
<path style=" stroke:none;fill-rule:evenodd;fill:rgb(100%,100%,93.72549%);fill-opacity:1;" d="M 13.707031 17.976562 L 13.539062 17.882812 L 13.367188 17.960938 L 13.40625 17.773438 L 13.273438 17.636719 L 13.460938 17.613281 L 13.550781 17.445312 L 13.632812 17.617188 L 13.820312 17.65625 L 13.675781 17.78125 "/>
<path style=" stroke:none;fill-rule:evenodd;fill:rgb(100%,100%,93.72549%);fill-opacity:1;" d="M 13.707031 17.976562 L 13.539062 17.882812 L 13.367188 17.960938 L 13.40625 17.773438 L 13.273438 17.636719 L 13.460938 17.613281 L 13.550781 17.445312 L 13.632812 17.617188 L 13.820312 17.65625 L 13.675781 17.78125 M 16.320312 17.96875 L 16.15625 17.882812 L 15.988281 17.960938 L 16.023438 17.773438 L 15.894531 17.636719 L 16.082031 17.613281 L 16.167969 17.445312 L 16.25 17.617188 L 16.4375 17.648438 L 16.292969 17.78125 M 15.992188 18.84375 L 15.832031 18.75 L 15.664062 18.835938 L 15.699219 18.648438 L 15.570312 18.507812 L 15.757812 18.480469 L 15.84375 18.3125 L 15.925781 18.488281 L 16.113281 18.523438 L 15.96875 18.648438 M 21.429688 17.261719 L 21.269531 17.164062 L 21.09375 17.25 L 21.132812 17.0625 L 21.007812 16.917969 L 21.195312 16.898438 L 21.28125 16.730469 L 21.355469 16.90625 L 21.542969 16.9375 L 21.40625 17.070312 M 19.835938 17.257812 L 19.667969 17.164062 L 19.5 17.25 L 19.539062 17.0625 L 19.414062 16.917969 L 19.601562 16.898438 L 19.6875 16.726562 L 19.761719 16.90625 L 19.949219 16.9375 L 19.8125 17.070312 M 15.511719 16.707031 L 15.40625 16.644531 L 15.300781 16.695312 L 15.324219 16.574219 L 15.242188 16.488281 L 15.363281 16.476562 L 15.414062 16.367188 L 15.460938 16.480469 L 15.582031 16.5 L 15.492188 16.582031 M 25.980469 19.417969 L 25.820312 19.324219 L 25.648438 19.414062 L 25.6875 19.226562 L 25.554688 19.082031 L 25.742188 19.054688 L 25.832031 18.886719 L 25.914062 19.0625 L 26.101562 19.101562 L 25.957031 19.226562 M 24.65625 19.601562 L 24.519531 19.511719 L 24.375 19.585938 L 24.40625 19.425781 L 24.300781 19.3125 L 24.457031 19.292969 L 24.53125 19.148438 L 24.59375 19.300781 L 24.75 19.324219 L 24.632812 19.4375 M 25.28125 19.582031 L 25.15625 19.507812 L 25.023438 19.570312 L 25.050781 19.425781 L 24.949219 19.320312 L 25.09375 19.300781 L 25.164062 19.175781 L 25.226562 19.300781 L 25.367188 19.332031 L 25.261719 19.429688 M 27.082031 18.007812 L 26.957031 17.945312 L 26.832031 18.007812 L 26.863281 17.863281 L 26.761719 17.757812 L 26.90625 17.738281 L 26.96875 17.613281 L 27.03125 17.742188 L 27.164062 17.769531 L 27.0625 17.867188 M 24.636719 20.480469 L 24.480469 20.394531 L 24.3125 20.46875 L 24.351562 20.292969 L 24.226562 20.167969 L 24.414062 20.148438 L 24.492188 19.992188 L 24.570312 20.15625 L 24.757812 20.1875 L 24.613281 20.304688 M 24.648438 21.195312 L 24.5 21.105469 L 24.351562 21.1875 L 24.386719 21.011719 L 24.269531 20.886719 L 24.4375 20.863281 L 24.511719 20.707031 L 24.582031 20.867188 L 24.75 20.898438 L 24.625 21.023438 M 23.4375 19.582031 L 23.320312 19.507812 L 23.195312 19.570312 L 23.21875 19.429688 L 23.125 19.324219 L 23.261719 19.3125 L 23.324219 19.1875 L 23.386719 19.3125 L 23.523438 19.335938 L 23.425781 19.4375 M 22.3125 19.582031 L 22.1875 19.507812 L 22.0625 19.570312 L 22.09375 19.429688 L 21.992188 19.324219 L 22.136719 19.3125 L 22.199219 19.1875 L 22.261719 19.3125 L 22.394531 19.335938 L 22.292969 19.4375 M 20.394531 17.898438 L 20.269531 17.832031 L 20.144531 17.894531 L 20.175781 17.75 L 20.074219 17.648438 L 20.210938 17.632812 L 20.273438 17.507812 L 20.335938 17.632812 L 20.476562 17.664062 L 20.375 17.757812 M 20.605469 21.320312 L 20.507812 21.261719 L 20.394531 21.320312 L 20.417969 21.195312 L 20.335938 21.105469 L 20.457031 21.09375 L 20.511719 20.988281 L 20.5625 21.101562 L 20.679688 21.117188 L 20.59375 21.199219 M 17.707031 15.789062 L 17.457031 15.644531 L 17.207031 15.769531 L 17.261719 15.488281 L 17.0625 15.28125 L 17.34375 15.242188 L 17.480469 14.992188 L 17.601562 15.257812 L 17.875 15.304688 L 17.667969 15.5 "/>
<path style=" stroke:none;fill-rule:evenodd;fill:rgb(100%,100%,100%);fill-opacity:1;" d="M 27.773438 17.863281 C 27.929688 17.460938 28.050781 17.046875 28.136719 16.625 C 23.898438 12.90625 19.179688 11 13.21875 11.394531 C 13.003906 11.8125 12.824219 12.25 12.6875 12.699219 C 19.75 12.023438 24.9375 15.148438 27.773438 17.863281 Z M 27.773438 17.863281 "/>
<path style=" stroke:none;fill-rule:nonzero;fill:rgb(18.823529%,61.960784%,22.745098%);fill-opacity:1;" d="M 25.875 15.773438 L 26.019531 15.855469 C 25.996094 15.898438 25.992188 15.949219 26 15.992188 C 26.015625 16.039062 26.046875 16.078125 26.085938 16.101562 C 26.132812 16.132812 26.175781 16.148438 26.210938 16.144531 C 26.25 16.144531 26.273438 16.125 26.292969 16.101562 C 26.304688 16.082031 26.308594 16.0625 26.304688 16.042969 C 26.300781 16.019531 26.289062 16 26.273438 15.980469 C 26.261719 15.960938 26.230469 15.917969 26.179688 15.867188 C 26.128906 15.816406 26.089844 15.75 26.070312 15.679688 C 26.035156 15.570312 26.089844 15.453125 26.195312 15.40625 C 26.238281 15.386719 26.289062 15.382812 26.335938 15.394531 C 26.394531 15.40625 26.453125 15.433594 26.5 15.46875 C 26.585938 15.53125 26.644531 15.59375 26.664062 15.667969 C 26.679688 15.738281 26.667969 15.816406 26.625 15.875 L 26.476562 15.78125 C 26.492188 15.742188 26.5 15.707031 26.488281 15.675781 C 26.480469 15.644531 26.457031 15.613281 26.414062 15.585938 C 26.378906 15.5625 26.339844 15.546875 26.300781 15.542969 C 26.277344 15.542969 26.253906 15.554688 26.242188 15.574219 C 26.230469 15.59375 26.230469 15.613281 26.238281 15.636719 C 26.242188 15.664062 26.273438 15.710938 26.335938 15.773438 C 26.398438 15.835938 26.4375 15.894531 26.460938 15.929688 C 26.507812 16.015625 26.5 16.117188 26.445312 16.195312 C 26.414062 16.238281 26.371094 16.269531 26.324219 16.289062 C 26.277344 16.308594 26.226562 16.316406 26.175781 16.304688 C 26.117188 16.292969 26.0625 16.269531 26 16.226562 C 25.90625 16.164062 25.851562 16.09375 25.832031 16.019531 C 25.8125 15.933594 25.824219 15.84375 25.867188 15.769531 Z M 25.148438 15.300781 L 25.304688 15.382812 C 25.285156 15.425781 25.28125 15.472656 25.292969 15.519531 C 25.308594 15.5625 25.339844 15.597656 25.382812 15.617188 C 25.429688 15.648438 25.46875 15.664062 25.507812 15.65625 C 25.542969 15.65625 25.570312 15.636719 25.585938 15.605469 C 25.597656 15.589844 25.601562 15.574219 25.601562 15.554688 C 25.601562 15.539062 25.585938 15.511719 25.570312 15.492188 C 25.535156 15.457031 25.503906 15.417969 25.46875 15.382812 C 25.398438 15.3125 25.355469 15.257812 25.34375 15.207031 C 25.324219 15.140625 25.332031 15.070312 25.367188 15.011719 C 25.394531 14.972656 25.425781 14.941406 25.46875 14.925781 C 25.511719 14.90625 25.558594 14.898438 25.605469 14.90625 C 25.664062 14.917969 25.71875 14.9375 25.769531 14.96875 C 25.863281 15.03125 25.917969 15.09375 25.9375 15.164062 C 25.960938 15.234375 25.953125 15.3125 25.914062 15.375 L 25.757812 15.289062 C 25.773438 15.242188 25.78125 15.210938 25.769531 15.179688 C 25.757812 15.148438 25.730469 15.117188 25.6875 15.09375 C 25.652344 15.070312 25.613281 15.054688 25.570312 15.054688 C 25.546875 15.058594 25.527344 15.070312 25.519531 15.085938 C 25.507812 15.105469 25.507812 15.125 25.511719 15.148438 C 25.519531 15.175781 25.554688 15.226562 25.617188 15.289062 C 25.679688 15.351562 25.726562 15.398438 25.742188 15.4375 C 25.792969 15.519531 25.792969 15.621094 25.742188 15.699219 C 25.714844 15.742188 25.675781 15.777344 25.632812 15.800781 C 25.585938 15.820312 25.53125 15.828125 25.480469 15.820312 C 25.417969 15.808594 25.355469 15.785156 25.300781 15.75 C 25.21875 15.707031 25.15625 15.636719 25.125 15.550781 C 25.101562 15.464844 25.109375 15.378906 25.148438 15.300781 Z M 24.261719 15.0625 L 24.71875 14.3125 L 25.269531 14.65625 L 25.195312 14.78125 L 24.792969 14.53125 L 24.695312 14.699219 L 25.070312 14.929688 L 24.988281 15.054688 L 24.613281 14.824219 L 24.488281 15.03125 L 24.90625 15.28125 L 24.832031 15.40625 L 24.269531 15.0625 Z M 22.96875 14 L 23.039062 13.875 L 23.375 14.042969 L 23.21875 14.355469 C 23.167969 14.367188 23.105469 14.375 23.03125 14.367188 C 22.960938 14.359375 22.890625 14.339844 22.824219 14.304688 C 22.75 14.269531 22.683594 14.214844 22.636719 14.144531 C 22.59375 14.078125 22.574219 14.003906 22.574219 13.925781 C 22.578125 13.84375 22.597656 13.765625 22.636719 13.695312 C 22.675781 13.617188 22.730469 13.554688 22.800781 13.507812 C 22.867188 13.460938 22.945312 13.4375 23.023438 13.4375 C 23.085938 13.4375 23.148438 13.457031 23.226562 13.5 C 23.324219 13.542969 23.386719 13.605469 23.417969 13.675781 C 23.449219 13.742188 23.457031 13.820312 23.4375 13.894531 L 23.269531 13.84375 C 23.277344 13.800781 23.273438 13.757812 23.257812 13.71875 C 23.238281 13.679688 23.207031 13.65625 23.15625 13.632812 C 23.097656 13.597656 23.027344 13.589844 22.960938 13.613281 C 22.898438 13.632812 22.84375 13.6875 22.800781 13.773438 C 22.757812 13.863281 22.738281 13.945312 22.757812 14.011719 C 22.773438 14.078125 22.820312 14.132812 22.882812 14.164062 C 22.914062 14.179688 22.949219 14.195312 22.988281 14.195312 C 23.023438 14.199219 23.0625 14.199219 23.101562 14.195312 L 23.148438 14.09375 Z M 17.332031 12.605469 L 17.457031 11.730469 L 17.71875 11.773438 L 17.789062 12.386719 L 18.03125 11.824219 L 18.292969 11.863281 L 18.167969 12.726562 L 18 12.699219 L 18.105469 12.019531 L 17.832031 12.675781 L 17.664062 12.648438 L 17.59375 11.945312 L 17.492188 12.632812 Z M 16.449219 12.5 L 16.53125 11.625 L 17.175781 11.6875 L 17.164062 11.835938 L 16.695312 11.792969 L 16.675781 11.980469 L 17.113281 12.023438 L 17.09375 12.175781 L 16.65625 12.132812 L 16.636719 12.367188 L 17.125 12.414062 L 17.113281 12.5625 Z M 16.449219 12.5 "/>
<path style=" stroke:none;fill-rule:nonzero;fill:rgb(18.823529%,61.960784%,22.745098%);fill-opacity:1;" d="M 13.53125 11.957031 C 13.53125 11.863281 13.550781 11.792969 13.574219 11.730469 C 13.597656 11.6875 13.625 11.644531 13.664062 11.613281 C 13.695312 11.582031 13.734375 11.554688 13.773438 11.539062 C 13.835938 11.519531 13.898438 11.507812 13.960938 11.507812 C 14.09375 11.507812 14.195312 11.554688 14.273438 11.632812 C 14.351562 11.726562 14.390625 11.851562 14.375 11.976562 C 14.375 12.113281 14.332031 12.226562 14.25 12.304688 C 14.164062 12.382812 14.050781 12.421875 13.9375 12.414062 C 13.824219 12.414062 13.714844 12.367188 13.636719 12.289062 C 13.558594 12.195312 13.519531 12.078125 13.53125 11.957031 Z M 13.53125 11.957031 "/>
<path style=" stroke:none;fill-rule:nonzero;fill:rgb(96.862745%,100%,100%);fill-opacity:1;" d="M 13.710938 11.957031 C 13.710938 12.050781 13.730469 12.125 13.773438 12.179688 C 13.820312 12.230469 13.875 12.261719 13.949219 12.261719 C 14.015625 12.265625 14.082031 12.242188 14.125 12.195312 C 14.167969 12.144531 14.1875 12.070312 14.195312 11.960938 C 14.195312 11.863281 14.179688 11.789062 14.132812 11.738281 C 14.089844 11.6875 14.027344 11.65625 13.960938 11.65625 C 13.894531 11.652344 13.832031 11.683594 13.789062 11.730469 C 13.738281 11.78125 13.71875 11.855469 13.710938 11.957031 Z M 13.710938 11.957031 "/>
<path style=" stroke:none;fill-rule:nonzero;fill:rgb(18.823529%,61.960784%,22.745098%);fill-opacity:1;" d="M 14.5625 12.40625 L 14.574219 11.53125 L 14.949219 11.53125 C 15.042969 11.53125 15.105469 11.542969 15.148438 11.5625 C 15.195312 11.574219 15.226562 11.605469 15.25 11.644531 C 15.273438 11.679688 15.289062 11.730469 15.289062 11.789062 C 15.289062 11.847656 15.265625 11.90625 15.226562 11.949219 C 15.179688 11.992188 15.121094 12.019531 15.054688 12.023438 L 15.148438 12.101562 C 15.175781 12.125 15.207031 12.175781 15.242188 12.242188 L 15.351562 12.417969 L 15.136719 12.417969 L 15.011719 12.21875 L 14.925781 12.09375 C 14.910156 12.078125 14.890625 12.0625 14.867188 12.054688 C 14.839844 12.046875 14.8125 12.042969 14.78125 12.042969 L 14.742188 12.042969 L 14.742188 12.40625 Z M 14.5625 12.40625 "/>
<path style=" stroke:none;fill-rule:nonzero;fill:rgb(100%,100%,100%);fill-opacity:1;" d="M 14.75 11.90625 L 14.875 11.90625 C 14.960938 11.90625 15.019531 11.90625 15.039062 11.894531 C 15.054688 11.894531 15.074219 11.875 15.085938 11.863281 C 15.101562 11.851562 15.105469 11.820312 15.105469 11.800781 C 15.105469 11.761719 15.101562 11.738281 15.082031 11.726562 C 15.070312 11.707031 15.042969 11.695312 15.019531 11.6875 L 14.894531 11.6875 L 14.75 11.679688 Z M 14.75 11.90625 "/>
<path style=" stroke:none;fill-rule:nonzero;fill:rgb(18.823529%,61.960784%,22.745098%);fill-opacity:1;" d="M 15.5625 11.574219 L 15.886719 11.59375 C 15.957031 11.59375 16.011719 11.601562 16.050781 11.613281 C 16.097656 11.628906 16.140625 11.660156 16.175781 11.699219 C 16.210938 11.742188 16.238281 11.792969 16.25 11.851562 C 16.269531 11.90625 16.273438 11.976562 16.269531 12.054688 C 16.269531 12.121094 16.257812 12.183594 16.238281 12.242188 C 16.210938 12.304688 16.175781 12.355469 16.132812 12.394531 C 16.09375 12.425781 16.050781 12.445312 16.007812 12.457031 C 15.96875 12.46875 15.914062 12.46875 15.851562 12.46875 L 15.519531 12.449219 Z M 15.5625 11.574219 "/>
<path style=" stroke:none;fill-rule:nonzero;fill:rgb(100%,100%,100%);fill-opacity:1;" d="M 15.730469 11.730469 L 15.699219 12.3125 L 15.9375 12.3125 C 15.96875 12.3125 15.992188 12.300781 16.011719 12.28125 C 16.03125 12.261719 16.050781 12.238281 16.0625 12.199219 C 16.074219 12.164062 16.085938 12.105469 16.085938 12.039062 L 16.082031 11.882812 C 16.074219 11.847656 16.054688 11.816406 16.03125 11.792969 C 16.011719 11.773438 15.984375 11.757812 15.957031 11.75 C 15.910156 11.738281 15.859375 11.734375 15.8125 11.730469 Z M 15.730469 11.730469 "/>
<path style=" stroke:none;fill-rule:nonzero;fill:rgb(18.823529%,61.960784%,22.745098%);fill-opacity:1;" d="M 19.851562 13.136719 L 20.054688 12.289062 L 20.332031 12.351562 L 20.53125 12.414062 C 20.574219 12.4375 20.613281 12.476562 20.632812 12.53125 C 20.65625 12.582031 20.65625 12.636719 20.644531 12.707031 C 20.632812 12.757812 20.613281 12.800781 20.582031 12.832031 C 20.535156 12.886719 20.464844 12.917969 20.394531 12.917969 C 20.351562 12.917969 20.289062 12.90625 20.207031 12.886719 L 20.101562 12.855469 L 20.023438 13.179688 Z M 19.851562 13.136719 "/>
<path style=" stroke:none;fill-rule:nonzero;fill:rgb(100%,100%,100%);fill-opacity:1;" d="M 20.1875 12.476562 L 20.136719 12.710938 L 20.230469 12.738281 C 20.292969 12.75 20.34375 12.761719 20.367188 12.757812 C 20.417969 12.75 20.457031 12.710938 20.46875 12.664062 C 20.46875 12.632812 20.46875 12.605469 20.457031 12.582031 C 20.441406 12.554688 20.421875 12.535156 20.394531 12.523438 L 20.273438 12.492188 L 20.195312 12.476562 Z M 20.1875 12.476562 "/>
<path style=" stroke:none;fill-rule:nonzero;fill:rgb(18.823529%,61.960784%,22.745098%);fill-opacity:1;" d="M 20.664062 13.382812 L 20.957031 12.554688 L 21.300781 12.679688 C 21.394531 12.710938 21.449219 12.742188 21.488281 12.769531 C 21.519531 12.800781 21.542969 12.832031 21.550781 12.882812 C 21.554688 12.929688 21.5625 12.976562 21.550781 13.023438 C 21.523438 13.085938 21.488281 13.132812 21.4375 13.164062 C 21.386719 13.1875 21.324219 13.195312 21.25 13.179688 C 21.273438 13.210938 21.300781 13.242188 21.3125 13.28125 L 21.363281 13.449219 L 21.398438 13.644531 L 21.207031 13.574219 L 21.144531 13.351562 C 21.132812 13.300781 21.117188 13.25 21.101562 13.199219 C 21.089844 13.179688 21.078125 13.164062 21.0625 13.148438 C 21.050781 13.132812 21.023438 13.117188 20.980469 13.105469 L 20.949219 13.09375 L 20.824219 13.445312 Z M 20.664062 13.382812 "/>
<path style=" stroke:none;fill-rule:nonzero;fill:rgb(100%,100%,100%);fill-opacity:1;" d="M 21 12.960938 L 21.117188 13.007812 C 21.199219 13.039062 21.25 13.050781 21.273438 13.050781 C 21.292969 13.050781 21.3125 13.050781 21.332031 13.03125 C 21.351562 13.019531 21.363281 13 21.367188 12.976562 C 21.382812 12.949219 21.382812 12.925781 21.367188 12.898438 C 21.359375 12.875 21.339844 12.855469 21.320312 12.84375 L 21.070312 12.757812 L 20.992188 12.960938 Z M 21 12.960938 "/>
<path style=" stroke:none;fill-rule:nonzero;fill:rgb(18.823529%,61.960784%,22.745098%);fill-opacity:1;" d="M 21.6875 13.351562 C 21.707031 13.277344 21.746094 13.207031 21.792969 13.148438 C 21.824219 13.113281 21.863281 13.082031 21.90625 13.054688 C 21.945312 13.035156 21.988281 13.019531 22.03125 13.011719 C 22.09375 13.011719 22.15625 13.011719 22.226562 13.039062 C 22.339844 13.066406 22.433594 13.140625 22.488281 13.242188 C 22.539062 13.34375 22.539062 13.460938 22.5 13.601562 C 22.46875 13.71875 22.394531 13.820312 22.289062 13.882812 C 22.195312 13.9375 22.082031 13.945312 21.960938 13.90625 C 21.851562 13.878906 21.753906 13.800781 21.699219 13.699219 C 21.648438 13.589844 21.644531 13.464844 21.6875 13.351562 Z M 21.6875 13.351562 "/>
<path style=" stroke:none;fill-rule:nonzero;fill:rgb(100%,100%,100%);fill-opacity:1;" d="M 21.863281 13.398438 C 21.835938 13.492188 21.832031 13.574219 21.863281 13.636719 C 21.894531 13.699219 21.9375 13.738281 22.007812 13.761719 C 22.070312 13.78125 22.132812 13.773438 22.195312 13.738281 C 22.257812 13.707031 22.292969 13.636719 22.324219 13.539062 C 22.355469 13.445312 22.355469 13.367188 22.324219 13.304688 C 22.300781 13.246094 22.25 13.199219 22.1875 13.179688 C 22.125 13.160156 22.058594 13.167969 22 13.199219 C 21.9375 13.238281 21.894531 13.300781 21.863281 13.398438 Z M 21.863281 13.398438 "/>
<path style=" stroke:none;fill-rule:nonzero;fill:rgb(18.823529%,61.960784%,22.745098%);fill-opacity:1;" d="M 23.394531 14.570312 L 23.792969 13.792969 L 24.125 13.960938 C 24.1875 13.992188 24.246094 14.03125 24.292969 14.082031 C 24.324219 14.113281 24.34375 14.148438 24.34375 14.199219 C 24.34375 14.25 24.34375 14.292969 24.320312 14.335938 C 24.292969 14.394531 24.25 14.4375 24.195312 14.460938 C 24.132812 14.476562 24.070312 14.476562 24 14.449219 C 24.023438 14.488281 24.039062 14.523438 24.050781 14.554688 C 24.0625 14.59375 24.070312 14.648438 24.074219 14.730469 L 24.085938 14.929688 L 23.898438 14.835938 L 23.875 14.605469 C 23.871094 14.554688 23.867188 14.5 23.855469 14.449219 C 23.851562 14.425781 23.839844 14.40625 23.824219 14.386719 L 23.75 14.34375 L 23.71875 14.324219 L 23.550781 14.648438 Z M 23.394531 14.570312 "/>
<path style=" stroke:none;fill-rule:nonzero;fill:rgb(100%,100%,100%);fill-opacity:1;" d="M 23.78125 14.199219 L 23.898438 14.261719 C 23.976562 14.300781 24.023438 14.324219 24.042969 14.324219 C 24.0625 14.324219 24.085938 14.324219 24.105469 14.3125 C 24.125 14.304688 24.136719 14.289062 24.148438 14.261719 C 24.164062 14.238281 24.167969 14.210938 24.164062 14.1875 C 24.15625 14.164062 24.140625 14.140625 24.117188 14.125 C 24.082031 14.101562 24.042969 14.082031 24.007812 14.0625 L 23.882812 14 Z M 23.78125 14.199219 "/>
<path style=" stroke:none;fill-rule:nonzero;fill:rgb(18.823529%,61.960784%,22.745098%);fill-opacity:1;" d="M 26.632812 16.167969 C 26.671875 16.105469 26.726562 16.050781 26.789062 16.007812 C 26.828125 15.980469 26.875 15.960938 26.925781 15.949219 C 26.96875 15.941406 27.015625 15.941406 27.0625 15.949219 C 27.125 15.960938 27.179688 15.988281 27.238281 16.023438 C 27.335938 16.085938 27.402344 16.1875 27.425781 16.300781 C 27.445312 16.40625 27.414062 16.523438 27.335938 16.644531 C 27.273438 16.746094 27.171875 16.820312 27.054688 16.851562 C 26.941406 16.875 26.824219 16.847656 26.730469 16.78125 C 26.632812 16.71875 26.566406 16.621094 26.542969 16.507812 C 26.523438 16.394531 26.554688 16.28125 26.632812 16.167969 Z M 26.632812 16.167969 "/>
<path style=" stroke:none;fill-rule:nonzero;fill:rgb(100%,100%,100%);fill-opacity:1;" d="M 26.789062 16.269531 C 26.726562 16.351562 26.707031 16.425781 26.71875 16.492188 C 26.726562 16.558594 26.765625 16.613281 26.820312 16.648438 C 26.882812 16.695312 26.945312 16.707031 27.007812 16.6875 C 27.070312 16.667969 27.132812 16.625 27.1875 16.539062 C 27.242188 16.449219 27.269531 16.375 27.257812 16.3125 C 27.25 16.25 27.210938 16.195312 27.15625 16.148438 C 27.101562 16.105469 27.03125 16.101562 26.96875 16.117188 C 26.90625 16.132812 26.84375 16.179688 26.78125 16.269531 Z M 26.789062 16.269531 "/>
<path style=" stroke:none;fill-rule:nonzero;fill:rgb(18.823529%,61.960784%,22.745098%);fill-opacity:1;" d="M 18.863281 12.78125 L 19.007812 12.167969 L 19.457031 12.273438 L 19.4375 12.375 L 19.105469 12.300781 L 19.074219 12.4375 L 19.382812 12.507812 L 19.355469 12.613281 L 19.050781 12.539062 L 19.011719 12.707031 L 19.355469 12.789062 L 19.332031 12.886719 Z M 18.863281 12.78125 "/>
</g>
</svg>
