<?xml version="1.0" encoding="UTF-8"?>
<svg xmlns="http://www.w3.org/2000/svg" xmlns:xlink="http://www.w3.org/1999/xlink" width="100%" height="100%" viewBox="0 0 40 30" version="1.1">
<g id="surface1">
<path style=" stroke:none;fill-rule:evenodd;fill:rgb(74.117647%,23.921569%,26.666667%);fill-opacity:1;" d="M 0 0 L 57 0 L 57 2.3125 L 0 2.3125 Z M 0 4.617188 L 57 4.617188 L 57 6.929688 L 0 6.929688 Z M 0 9.230469 L 57 9.230469 L 57 11.542969 L 0 11.542969 Z M 0 13.84375 L 57 13.84375 L 57 16.15625 L 0 16.15625 Z M 0 18.46875 L 57 18.46875 L 57 20.769531 L 0 20.769531 Z M 0 23.074219 L 57 23.074219 L 57 25.386719 L 0 25.386719 Z M 0 27.6875 L 57 27.6875 L 57 30 L 0 30 Z M 0 27.6875 "/>
<path style=" stroke:none;fill-rule:evenodd;fill:rgb(100%,100%,100%);fill-opacity:1;" d="M 0 2.3125 L 57 2.3125 L 57 4.617188 L 0 4.617188 Z M 0 6.925781 L 57 6.925781 L 57 9.230469 L 0 9.230469 Z M 0 11.539062 L 57 11.539062 L 57 13.851562 L 0 13.851562 Z M 0 16.15625 L 57 16.15625 L 57 18.46875 L 0 18.46875 Z M 0 20.769531 L 57 20.769531 L 57 23.082031 L 0 23.082031 Z M 0 25.382812 L 57 25.382812 L 57 27.695312 L 0 27.695312 Z M 0 25.382812 "/>
<path style=" stroke:none;fill-rule:evenodd;fill:rgb(9.803922%,18.431373%,36.470588%);fill-opacity:1;" d="M 0 0 L 22.800781 0 L 22.800781 16.15625 L 0 16.15625 Z M 0 0 "/>
<path style=" stroke:none;fill-rule:evenodd;fill:rgb(100%,100%,100%);fill-opacity:1;" d="M 1.898438 0.6875 L 2.113281 1.332031 L 2.773438 1.332031 L 2.238281 1.726562 L 2.445312 2.367188 L 1.898438 1.96875 L 1.363281 2.363281 L 1.5625 1.726562 L 1.019531 1.332031 L 1.699219 1.332031 Z M 5.699219 0.6875 L 5.90625 1.332031 L 6.582031 1.332031 L 6.039062 1.726562 L 6.238281 2.367188 L 5.699219 1.96875 L 5.15625 2.363281 L 5.363281 1.726562 L 4.824219 1.332031 L 5.488281 1.332031 Z M 9.5 0.6875 L 9.707031 1.332031 L 10.375 1.332031 L 9.835938 1.726562 L 10.042969 2.367188 L 9.5 1.96875 L 8.957031 2.363281 L 9.164062 1.726562 L 8.617188 1.332031 L 9.292969 1.332031 Z M 13.300781 0.6875 L 13.507812 1.332031 L 14.179688 1.332031 L 13.636719 1.726562 L 13.84375 2.367188 L 13.300781 1.96875 L 12.757812 2.363281 L 12.96875 1.726562 L 12.417969 1.332031 L 13.085938 1.332031 Z M 17.101562 0.6875 L 17.304688 1.332031 L 17.976562 1.332031 L 17.4375 1.726562 L 17.644531 2.367188 L 17.101562 1.96875 L 16.554688 2.363281 L 16.761719 1.726562 L 16.226562 1.332031 L 16.894531 1.332031 Z M 20.898438 0.6875 L 21.105469 1.332031 L 21.78125 1.332031 L 21.230469 1.726562 L 21.445312 2.367188 L 20.898438 1.96875 L 20.355469 2.363281 L 20.570312 1.726562 L 20.019531 1.332031 L 20.695312 1.332031 Z M 3.800781 2.3125 L 4.007812 2.949219 L 4.6875 2.949219 L 4.144531 3.335938 L 4.34375 3.980469 L 3.8125 3.585938 L 3.269531 3.980469 L 3.460938 3.335938 L 2.9375 2.949219 L 3.605469 2.949219 Z M 7.601562 2.3125 L 7.8125 2.949219 L 8.480469 2.949219 L 7.929688 3.335938 L 8.144531 3.980469 L 7.601562 3.585938 L 7.054688 3.980469 L 7.261719 3.335938 L 6.71875 2.949219 L 7.394531 2.949219 Z M 11.398438 2.3125 L 11.605469 2.949219 L 12.28125 2.949219 L 11.738281 3.335938 L 11.945312 3.980469 L 11.398438 3.585938 L 10.855469 3.980469 L 11.0625 3.335938 L 10.523438 2.949219 L 11.1875 2.949219 Z M 15.199219 2.3125 L 15.414062 2.949219 L 16.082031 2.949219 L 15.53125 3.335938 L 15.742188 3.980469 L 15.199219 3.585938 L 14.664062 3.980469 L 14.863281 3.335938 L 14.320312 2.949219 L 15 2.949219 Z M 19 2.3125 L 19.207031 2.949219 L 19.882812 2.949219 L 19.335938 3.335938 L 19.542969 3.980469 L 19 3.585938 L 18.457031 3.980469 L 18.664062 3.335938 L 18.125 2.949219 L 18.792969 2.949219 Z M 1.898438 3.914062 L 2.113281 4.5625 L 2.773438 4.5625 L 2.238281 4.957031 L 2.445312 5.59375 L 1.898438 5.199219 L 1.363281 5.59375 L 1.5625 4.957031 L 1.019531 4.5625 L 1.699219 4.5625 Z M 5.699219 3.914062 L 5.90625 4.5625 L 6.582031 4.5625 L 6.039062 4.957031 L 6.238281 5.59375 L 5.699219 5.199219 L 5.15625 5.59375 L 5.363281 4.949219 L 4.824219 4.554688 L 5.488281 4.554688 Z M 9.5 3.914062 L 9.707031 4.554688 L 10.375 4.554688 L 9.835938 4.949219 L 10.042969 5.585938 L 9.5 5.195312 L 8.957031 5.585938 L 9.164062 4.945312 L 8.617188 4.550781 L 9.292969 4.550781 Z M 13.300781 3.914062 L 13.507812 4.554688 L 14.179688 4.554688 L 13.636719 4.949219 L 13.84375 5.585938 L 13.300781 5.195312 L 12.757812 5.585938 L 12.96875 4.945312 L 12.417969 4.550781 L 13.085938 4.550781 Z M 17.101562 3.914062 L 17.304688 4.554688 L 17.976562 4.554688 L 17.4375 4.949219 L 17.644531 5.585938 L 17.101562 5.195312 L 16.554688 5.585938 L 16.761719 4.945312 L 16.226562 4.550781 L 16.894531 4.550781 Z M 20.898438 3.914062 L 21.105469 4.554688 L 21.78125 4.554688 L 21.230469 4.949219 L 21.445312 5.585938 L 20.898438 5.195312 L 20.355469 5.585938 L 20.570312 4.945312 L 20.019531 4.550781 L 20.695312 4.550781 Z M 3.800781 5.539062 L 4.007812 6.175781 L 4.6875 6.175781 L 4.144531 6.570312 L 4.351562 7.210938 L 3.804688 6.8125 L 3.261719 7.207031 L 3.46875 6.570312 L 2.929688 6.175781 L 3.601562 6.175781 Z M 7.601562 5.539062 L 7.8125 6.175781 L 8.480469 6.175781 L 7.929688 6.570312 L 8.144531 7.210938 L 7.601562 6.8125 L 7.054688 7.207031 L 7.261719 6.570312 L 6.71875 6.175781 L 7.394531 6.175781 Z M 11.398438 5.539062 L 11.605469 6.175781 L 12.28125 6.175781 L 11.738281 6.570312 L 11.945312 7.210938 L 11.398438 6.8125 L 10.855469 7.207031 L 11.0625 6.570312 L 10.523438 6.175781 L 11.1875 6.175781 Z M 15.199219 5.539062 L 15.414062 6.175781 L 16.082031 6.175781 L 15.539062 6.570312 L 15.742188 7.210938 L 15.199219 6.8125 L 14.664062 7.207031 L 14.863281 6.570312 L 14.320312 6.175781 L 15 6.175781 Z M 19 5.539062 L 19.207031 6.175781 L 19.882812 6.175781 L 19.335938 6.570312 L 19.542969 7.210938 L 19 6.8125 L 18.457031 7.207031 L 18.664062 6.570312 L 18.125 6.175781 L 18.792969 6.175781 Z M 1.898438 7.15625 L 2.113281 7.792969 L 2.773438 7.792969 L 2.238281 8.1875 L 2.445312 8.832031 L 1.898438 8.429688 L 1.363281 8.824219 L 1.5625 8.1875 L 1.019531 7.792969 L 1.699219 7.792969 Z M 5.699219 7.15625 L 5.90625 7.792969 L 6.582031 7.792969 L 6.039062 8.1875 L 6.238281 8.824219 L 5.699219 8.429688 L 5.15625 8.824219 L 5.363281 8.1875 L 4.824219 7.792969 L 5.488281 7.792969 Z M 9.5 7.15625 L 9.707031 7.792969 L 10.375 7.792969 L 9.835938 8.1875 L 10.042969 8.832031 L 9.5 8.429688 L 8.957031 8.824219 L 9.164062 8.1875 L 8.617188 7.792969 L 9.292969 7.792969 Z M 13.300781 7.15625 L 13.507812 7.792969 L 14.179688 7.792969 L 13.636719 8.1875 L 13.84375 8.832031 L 13.300781 8.429688 L 12.757812 8.824219 L 12.96875 8.1875 L 12.417969 7.792969 L 13.085938 7.792969 Z M 17.101562 7.15625 L 17.304688 7.792969 L 17.976562 7.792969 L 17.4375 8.1875 L 17.644531 8.832031 L 17.101562 8.429688 L 16.554688 8.824219 L 16.761719 8.1875 L 16.226562 7.792969 L 16.894531 7.792969 Z M 20.898438 7.15625 L 21.105469 7.792969 L 21.78125 7.792969 L 21.230469 8.1875 L 21.445312 8.832031 L 20.898438 8.429688 L 20.355469 8.824219 L 20.5625 8.1875 L 20.011719 7.792969 L 20.6875 7.792969 Z M 3.800781 8.769531 L 4.007812 9.414062 L 4.6875 9.414062 L 4.144531 9.800781 L 4.351562 10.445312 L 3.804688 10.042969 L 3.261719 10.445312 L 3.46875 9.800781 L 2.929688 9.40625 L 3.601562 9.40625 Z M 7.601562 8.769531 L 7.8125 9.414062 L 8.480469 9.414062 L 7.929688 9.800781 L 8.144531 10.445312 L 7.601562 10.042969 L 7.054688 10.445312 L 7.261719 9.800781 L 6.71875 9.40625 L 7.394531 9.40625 Z M 11.398438 8.769531 L 11.605469 9.414062 L 12.28125 9.414062 L 11.738281 9.800781 L 11.945312 10.445312 L 11.398438 10.042969 L 10.855469 10.445312 L 11.0625 9.800781 L 10.523438 9.40625 L 11.1875 9.40625 Z M 15.199219 8.769531 L 15.414062 9.414062 L 16.082031 9.414062 L 15.539062 9.800781 L 15.742188 10.445312 L 15.199219 10.042969 L 14.664062 10.445312 L 14.863281 9.800781 L 14.320312 9.40625 L 15 9.40625 Z M 19 8.769531 L 19.207031 9.414062 L 19.882812 9.414062 L 19.335938 9.800781 L 19.542969 10.445312 L 19 10.042969 L 18.457031 10.445312 L 18.664062 9.800781 L 18.125 9.40625 L 18.792969 9.40625 Z M 1.898438 10.382812 L 2.113281 11.023438 L 2.773438 11.023438 L 2.238281 11.417969 L 2.445312 12.050781 L 1.898438 11.664062 L 1.363281 12.050781 L 1.5625 11.414062 L 1.019531 11.019531 L 1.699219 11.019531 Z M 5.699219 10.382812 L 5.90625 11.023438 L 6.582031 11.023438 L 6.039062 11.417969 L 6.242188 12.050781 L 5.699219 11.664062 L 5.15625 12.050781 L 5.367188 11.414062 L 4.824219 11.019531 L 5.488281 11.019531 Z M 9.5 10.382812 L 9.707031 11.023438 L 10.375 11.023438 L 9.835938 11.417969 L 10.042969 12.050781 L 9.5 11.664062 L 8.957031 12.050781 L 9.164062 11.414062 L 8.617188 11.019531 L 9.292969 11.019531 Z M 13.300781 10.382812 L 13.507812 11.023438 L 14.179688 11.023438 L 13.636719 11.417969 L 13.84375 12.050781 L 13.300781 11.664062 L 12.757812 12.050781 L 12.96875 11.414062 L 12.417969 11.019531 L 13.085938 11.019531 Z M 17.101562 10.382812 L 17.304688 11.023438 L 17.976562 11.023438 L 17.4375 11.417969 L 17.644531 12.050781 L 17.101562 11.664062 L 16.554688 12.050781 L 16.761719 11.414062 L 16.226562 11.019531 L 16.894531 11.019531 Z M 20.898438 10.382812 L 21.105469 11.023438 L 21.78125 11.023438 L 21.230469 11.417969 L 21.445312 12.050781 L 20.898438 11.664062 L 20.355469 12.050781 L 20.570312 11.414062 L 20.019531 11.019531 L 20.695312 11.019531 Z M 3.800781 12 L 4.007812 12.636719 L 4.6875 12.636719 L 4.144531 13.03125 L 4.351562 13.675781 L 3.804688 13.273438 L 3.261719 13.667969 L 3.46875 13.03125 L 2.929688 12.636719 L 3.601562 12.636719 Z M 7.601562 12 L 7.8125 12.636719 L 8.480469 12.636719 L 7.929688 13.03125 L 8.144531 13.675781 L 7.601562 13.273438 L 7.054688 13.667969 L 7.261719 13.03125 L 6.71875 12.636719 L 7.394531 12.636719 Z M 11.398438 12 L 11.605469 12.636719 L 12.28125 12.636719 L 11.738281 13.03125 L 11.945312 13.675781 L 11.398438 13.273438 L 10.855469 13.667969 L 11.0625 13.03125 L 10.523438 12.636719 L 11.1875 12.636719 Z M 15.199219 12 L 15.414062 12.636719 L 16.082031 12.636719 L 15.539062 13.03125 L 15.742188 13.675781 L 15.199219 13.273438 L 14.664062 13.667969 L 14.863281 13.03125 L 14.320312 12.636719 L 15 12.636719 Z M 19 12 L 19.207031 12.636719 L 19.882812 12.636719 L 19.335938 13.03125 L 19.542969 13.675781 L 19 13.273438 L 18.457031 13.667969 L 18.664062 13.03125 L 18.125 12.636719 L 18.792969 12.636719 Z M 1.898438 13.617188 L 2.113281 14.257812 L 2.773438 14.257812 L 2.238281 14.648438 L 2.445312 15.289062 L 1.898438 14.894531 L 1.363281 15.289062 L 1.5625 14.644531 L 1.019531 14.25 L 1.699219 14.25 Z M 5.699219 13.617188 L 5.90625 14.257812 L 6.582031 14.257812 L 6.039062 14.648438 L 6.242188 15.289062 L 5.699219 14.894531 L 5.15625 15.289062 L 5.367188 14.644531 L 4.824219 14.25 L 5.488281 14.25 Z M 9.5 13.617188 L 9.707031 14.257812 L 10.375 14.257812 L 9.851562 14.648438 L 10.054688 15.289062 L 9.511719 14.894531 L 8.96875 15.289062 L 9.175781 14.644531 L 8.632812 14.25 L 9.304688 14.25 Z M 13.300781 13.617188 L 13.507812 14.257812 L 14.179688 14.257812 L 13.636719 14.648438 L 13.84375 15.289062 L 13.300781 14.894531 L 12.757812 15.289062 L 12.96875 14.644531 L 12.417969 14.25 L 13.085938 14.25 Z M 17.101562 13.617188 L 17.304688 14.257812 L 17.976562 14.257812 L 17.4375 14.648438 L 17.644531 15.289062 L 17.101562 14.894531 L 16.554688 15.289062 L 16.761719 14.644531 L 16.226562 14.25 L 16.894531 14.25 Z M 20.898438 13.617188 L 21.105469 14.257812 L 21.78125 14.257812 L 21.230469 14.648438 L 21.445312 15.289062 L 20.898438 14.894531 L 20.355469 15.289062 L 20.570312 14.644531 L 20.019531 14.25 L 20.695312 14.25 Z M 20.898438 13.617188 "/>
</g>
</svg>
